  <svg xmlns="http://www.w3.org/2000/svg" viewBox="0 0 200 200">
    <circle cx="100" cy="100" r="90" fill="#4A90E2" opacity="0.1"/>
    
    <path d="M160 80c0-33.137-26.863-60-60-60S40 46.863 40 80c0 23.363 13.373 43.617 32.807 53.506l-0.557 26.494 20-16.667C128.902 143.333 160 115.882 160 80z" 
          fill="#4A90E2" 
          stroke="#4A90E2" 
          stroke-width="8"
          stroke-linejoin="round"/>
    
    <path d="M70 70 h30 M130 70 h-15
             M70 90 h60
             M70 110 h20 M110 110 h20" 
          stroke="#FFFFFF" 
          stroke-width="6" 
          stroke-linecap="round"/>
    
    <circle cx="85" cy="70" r="4" fill="#FFFFFF"/>
    <circle cx="115" cy="70" r="4" fill="#FFFFFF"/>
    <circle cx="90" cy="110" r="4" fill="#FFFFFF"/>
    
    <circle cx="60" cy="80" r="3" fill="#FFFFFF"/>
    <circle cx="140" cy="80" r="3" fill="#FFFFFF"/>
    <circle cx="100" cy="120" r="3" fill="#FFFFFF"/>
  </svg>